<svg id="Capa_1" enable-background="new 0 0 512 512" height="512" viewBox="0 0 512 512" width="512" xmlns="http://www.w3.org/2000/svg"><path d="m323.5 0h-240c-24.813 0-45 20.187-45 45v391c0 24.813 20.187 45 45 45h240c24.813 0 45-20.187 45-45v-391c0-24.813-20.187-45-45-45z" fill="#0052c2"/><path d="m368.5 45v391c0 24.81-20.19 45-45 45h-120v-481h120c24.81 0 45 20.19 45 45z" fill="#003481"/><path d="m68.5 91h270v300h-270z" fill="#e0f4ff"/><path d="m203.5 91h135v300h-135z" fill="#b8e0f5"/><path d="m173.5 121h-60c-8.284 0-15 6.716-15 15v60c0 8.284 6.716 15 15 15h60c8.284 0 15-6.716 15-15v-60c0-8.284-6.716-15-15-15z" fill="#fdbf00"/><path d="m293.5 121h-60c-8.284 0-15 6.716-15 15v60c0 8.284 6.716 15 15 15h60c8.284 0 15-6.716 15-15v-60c0-8.284-6.716-15-15-15z" fill="#ff641a"/><path d="m443.5 286c-16.569 0-30 13.431-30 30v-15c0-16.569-13.431-30-30-30s-30 13.431-30 30v-15c0-16.569-13.431-30-30-30s-30 13.431-30 30c0 0-.005-36-.005-75 0-24.813-20.187-45-45-45s-45 20.187-45 45v120.816l-3.596-5.737c-13.059-20.839-40.338-27.426-61.472-14.829-21.856 13.029-28.663 41.442-15.095 62.959l82.474 130.792c2.748 4.356 7.538 6.999 12.688 6.999h210.006c5.069 0 9.795-2.56 12.564-6.806l30-46c1.589-2.437 2.436-5.284 2.436-8.194 0-5.653 0-129.355 0-135 0-16.569-13.431-30-30-30z" fill="#fecec0"/><path d="m473.5 316v135c0 2.91-.85 5.76-2.44 8.19l-30 46c-2.77 4.25-7.49 6.81-12.56 6.81h-180v-346c24.81 0 45 20.19 45 45v75c0-16.57 13.43-30 30-30s30 13.43 30 30v15c0-16.57 13.43-30 30-30s30 13.43 30 30v15c0-16.57 13.43-30 30-30s30 13.43 30 30z" fill="#feb99e"/></svg>